<?xml version="1.0" encoding="UTF-8" standalone="no"?>
<svg
   width="668.0484"
   height="431.53815"
   viewBox="0 0 668.0484 431.53815"
   fill="none"
   version="1.1"
   id="svg4"
   sodipodi:docname="background3.svg"
   inkscape:version="1.1 (1:1.1+202105261517+ce6663b3b7)"
   xmlns:inkscape="http://www.inkscape.org/namespaces/inkscape"
   xmlns:sodipodi="http://sodipodi.sourceforge.net/DTD/sodipodi-0.dtd"
   xmlns="http://www.w3.org/2000/svg"
   xmlns:svg="http://www.w3.org/2000/svg">
  <sodipodi:namedview
     id="namedview7"
     pagecolor="#ffffff"
     bordercolor="#666666"
     borderopacity="1.0"
     inkscape:pageshadow="2"
     inkscape:pageopacity="0.0"
     inkscape:pagecheckerboard="0"
     showgrid="false"
     fit-margin-top="0"
     fit-margin-left="0"
     fit-margin-right="0"
     fit-margin-bottom="0"
     inkscape:zoom="0.90561174"
     inkscape:cx="221.94942"
     inkscape:cy="328.50723"
     inkscape:window-width="1848"
     inkscape:window-height="1016"
     inkscape:window-x="72"
     inkscape:window-y="27"
     inkscape:window-maximized="1"
     inkscape:current-layer="svg4" />
  <defs
     id="defs8">
    <inkscape:path-effect
       effect="powerclip"
       id="path-effect931"
       is_visible="true"
       lpeversion="1"
       inverse="true"
       flatten="false"
       hide_clip="false"
       message="Use fill-rule evenodd on &lt;b&gt;fill and stroke&lt;/b&gt; dialog if no flatten result after convert clip to paths." />
    <clipPath
       clipPathUnits="userSpaceOnUse"
       id="clipPath1267">
      <rect
         style="fill:#ffffff;fill-opacity:0.574149"
         id="rect1269"
         width="666.39001"
         height="449.32837"
         x="1.5302533"
         y="0.53913909" />
    </clipPath>
    <clipPath
       clipPathUnits="userSpaceOnUse"
       id="clipPath927">
      <rect
         style="display:none;fill:#ffffff;fill-opacity:0.574149;stroke-width:2.49958"
         id="rect929"
         width="162.96677"
         height="74.75312"
         x="504.95346"
         y="372.23227"
         d="m 504.95346,372.23227 h 162.96677 v 74.75312 H 504.95346 Z" />
      <path
         id="lpe_path-effect931"
         style="fill:#ffffff;fill-opacity:0.574149;stroke-width:2.49958"
         class="powerclip"
         d="M -4.9999886,-5.0000193 H 673.0484 V 664 H -4.9999886 Z" />
    </clipPath>
    <clipPath
       clipPathUnits="userSpaceOnUse"
       id="clipPath1243">
      <rect
         style="fill:#ffffff;fill-opacity:0.574149;stroke-width:0.989954"
         id="rect1245"
         width="666.29779"
         height="447.35352"
         x="-0.99998868"
         y="2.9652495"
         d="M -0.99998868,2.9652495 H 665.2978 V 450.31877 H -0.99998868 Z" />
    </clipPath>
    <clipPath
       clipPathUnits="userSpaceOnUse"
       id="clipPath1605">
      <rect
         style="fill:#ffffff;fill-opacity:0.574149;stroke-width:3.96112"
         id="rect1607"
         width="669.76776"
         height="431.53815"
         x="-0.99998868"
         y="2.9652495"
         d="M -0.99998868,2.9652495 H 668.76777 V 434.5034 H -0.99998868 Z" />
    </clipPath>
  </defs>
  <path
     fill-rule="evenodd"
     clip-rule="evenodd"
     d="M 19.5283,474.524 C -10.6642,533.878 -0.133859,602.299 13.1608,659 H 64.5864 C 49.8623,598.957 41.0799,542.433 64.0947,497.192 l 0.0014,-0.003 c 17.5062,-34.423 53.0959,-59.541 94.1519,-75.372 l 0.007,-0.003 c 28.825,-11.125 57.935,-17.644 89.028,-24.607 h 0.001 c 14.509,-3.25 29.449,-6.596 44.995,-10.551 l 0.008,-0.002 c 46.845,-11.938 97.825,-29.924 137.253,-66.217 18.887,-17.381 38.229,-42.724 41.11,-74.379 4.323,-47.385 -29.289,-85.383 -59.487,-106.776 -12.8,-9.068 -26.561,-16.875 -39.022,-23.944 l -0.001,-10e-4 h -10e-4 l -0.007,-0.004 c -2.276,-1.291 -4.508,-2.558 -6.684,-3.803 C 350.783,103.136 338.003,95.3463 326.983,85.9456 301.833,64.4857 285.426,32.851 281.904,-1.23224e-5 l -50.205,2.1945e-6 C 235.328,47.4375 258.257,93.0316 294.528,123.981 l 0.002,0.002 c 14.852,12.67 31.174,22.41 46.08,30.942 2.499,1.43 4.948,2.821 7.351,4.186 12.485,7.094 23.725,13.48 34.299,20.971 25.303,17.925 40.456,41.071 38.597,61.438 l -0.001,0.006 c -1.263,13.882 -10.416,28.538 -25.174,42.12 l -0.002,0.002 c -30.06,27.669 -71.071,43.171 -115.732,54.552 -12.518,3.185 -25.774,6.162 -39.414,9.224 -32.832,7.372 -67.895,15.245 -100.275,27.741 -47.0538,18.144 -95.4288,49.607 -120.7307,99.359 z M 441.28,-1.9289e-5 C 444.605,29.1032 467.248,56.7499 498.039,79.4937 l 0.007,0.0046 c 11.158,8.2475 22.459,15.5533 34.471,23.3187 h 10e-4 v 0.001 l 0.002,0.001 0.006,0.004 c 5.657,3.657 11.472,7.416 17.503,11.423 18.104,12.029 37.012,25.606 53.692,42.755 l 0.003,0.002 c 49.405,50.781 69.317,123.881 63.275,191.771 -6.351,71.365 -51.764,114.748 -89.452,150.751 l -0.004,0.004 c -4.974,4.752 -9.814,9.375 -14.411,13.917 -20.731,20.481 -37.674,39.733 -48.065,62.749 -9.588,21.239 -14.283,47.298 -8.305,82.805 h -50.566 c -5.495,-40.702 0.175,-74.305 13.299,-103.378 14.362,-31.813 36.9,-56.408 58.496,-77.745 5.225,-5.162 10.365,-10.136 15.376,-14.987 38.365,-37.132 69.243,-67.019 73.829,-118.548 5,-56.185 -11.872,-113.994 -49.312,-152.474 l -0.002,-0.003 c -12.9,-13.262 -28.243,-24.492 -45.522,-35.973 -4.908,-3.26 -10.101,-6.619 -15.441,-10.073 l -10e-4,-10e-4 C 494.26,137.63 480.778,128.91 468.333,119.712 l -0.006,-0.004 C 432.982,93.5998 394.485,52.8976 391.095,-1.70953e-5 Z"
     fill="#d9dcd5"
     id="path2"
     clip-path="url(#clipPath1605)"
     transform="translate(-1.1438222e-5,-2.9652495)"
     inkscape:path-effect="#path-effect931"
     inkscape:original-d="M 19.5283,474.524 C -10.6642,533.878 -0.133859,602.299 13.1608,659 H 64.5864 C 49.8623,598.957 41.0799,542.433 64.0947,497.192 l 0.0014,-0.003 c 17.5062,-34.423 53.0959,-59.541 94.1519,-75.372 l 0.007,-0.003 c 28.825,-11.125 57.935,-17.644 89.028,-24.607 h 0.001 c 14.509,-3.25 29.449,-6.596 44.995,-10.551 l 0.008,-0.002 c 46.845,-11.938 97.825,-29.924 137.253,-66.217 18.887,-17.381 38.229,-42.724 41.11,-74.379 4.323,-47.385 -29.289,-85.383 -59.487,-106.776 -12.8,-9.068 -26.561,-16.875 -39.022,-23.944 l -0.001,-10e-4 h -10e-4 l -0.007,-0.004 c -2.276,-1.291 -4.508,-2.558 -6.684,-3.803 C 350.783,103.136 338.003,95.3463 326.983,85.9456 301.833,64.4857 285.426,32.851 281.904,-1.23224e-5 l -50.205,2.1945e-6 C 235.328,47.4375 258.257,93.0316 294.528,123.981 l 0.002,0.002 c 14.852,12.67 31.174,22.41 46.08,30.942 2.499,1.43 4.948,2.821 7.351,4.186 12.485,7.094 23.725,13.48 34.299,20.971 25.303,17.925 40.456,41.071 38.597,61.438 l -0.001,0.006 c -1.263,13.882 -10.416,28.538 -25.174,42.12 l -0.002,0.002 c -30.06,27.669 -71.071,43.171 -115.732,54.552 -12.518,3.185 -25.774,6.162 -39.414,9.224 -32.832,7.372 -67.895,15.245 -100.275,27.741 -47.0538,18.144 -95.4288,49.607 -120.7307,99.359 z M 441.28,-1.9289e-5 C 444.605,29.1032 467.248,56.7499 498.039,79.4937 l 0.007,0.0046 c 11.158,8.2475 22.459,15.5533 34.471,23.3187 h 10e-4 v 0.001 l 0.002,0.001 0.006,0.004 c 5.657,3.657 11.472,7.416 17.503,11.423 18.104,12.029 37.012,25.606 53.692,42.755 l 0.003,0.002 c 49.405,50.781 69.317,123.881 63.275,191.771 -6.351,71.365 -51.764,114.748 -89.452,150.751 l -0.004,0.004 c -4.974,4.752 -9.814,9.375 -14.411,13.917 -20.731,20.481 -37.674,39.733 -48.065,62.749 -9.588,21.239 -14.283,47.298 -8.305,82.805 h -50.566 c -5.495,-40.702 0.175,-74.305 13.299,-103.378 14.362,-31.813 36.9,-56.408 58.496,-77.745 5.225,-5.162 10.365,-10.136 15.376,-14.987 38.365,-37.132 69.243,-67.019 73.829,-118.548 5,-56.185 -11.872,-113.994 -49.312,-152.474 l -0.002,-0.003 c -12.9,-13.262 -28.243,-24.492 -45.522,-35.973 -4.908,-3.26 -10.101,-6.619 -15.441,-10.073 l -10e-4,-10e-4 C 494.26,137.63 480.778,128.91 468.333,119.712 l -0.006,-0.004 C 432.982,93.5998 394.485,52.8976 391.095,-1.70953e-5 Z" />
</svg>
